#!OML:ASF I:\Actors\actors\Patient Classification 1\Patient 1\Session 1\Subject1.ASF
:FULLY-SPECIFIED
:DEGREES
932
root -0.646135 17.4975 7.72281 9.0255 0.547444 -7.33254
lowerback 0.71701 0.259535 5.23161
upperback -11.7299 0.901343 1.32942
thorax -13.0845 -0.0317098 -1.56611
lowerneck -5.6074 -7.48946 -7.02134
upperneck 23.2517 -11.637 8.65594
head 9.11575 -5.32181 2.95317
rclavicle -3.8763e-015 1.27222e-014
rhumerus -43.252 -13.2191 -80.0784
rradius 21.9514
rwrist 39.6426
rhand 8.78049 -33.6691
rfingers 7.12502
rthumb 33.9688 299.54
lclavicle -3.8763e-015 1.27222e-014
lhumerus -46.7373 18.7477 71.8811
lradius 20.1589
lwrist -25.5099
lhand -16.9272 -7.47721
lfingers 7.12502
lthumb 9.30558 22.2974
rfemur -0.924676 26.8132 26.1935
rtibia -0.946279
rfoot -11.9057 -26.6674
rtoes 5.40534
lfemur 9.49206 -52.8624 -17.8352
ltibia -5.35707
lfoot -31.3485 58.9306
ltoes 19.1972
933
root -0.644951 17.4967 7.72191 8.99179 0.515627 -7.29136
lowerback 0.684999 0.260746 5.19825
upperback -11.7007 0.896228 1.3253
thorax -13.0292 -0.0292709 -1.55159
lowerneck -5.70952 -7.42825 -6.97107
upperneck 23.3576 -11.5537 8.62227
head 9.15879 -5.27594 2.93956
rclavicle 5.96354e-015 1.98785e-015
rhumerus -43.1721 -13.0787 -80.3015
rradius 21.9331
rwrist 39.543
rhand 8.71971 -33.6617
rfingers 7.12502
rthumb 33.911 299.535
lclavicle 5.96354e-015 1.98785e-015
lhumerus -46.6863 19.0034 71.9496
lradius 20.3367
lwrist -25.6142
lhand -16.7257 -7.75912
lfingers 7.12502
lthumb 9.49999 22.0067
rfemur -0.886789 26.7979 26.1502
rtibia -0.95012
rfoot -11.9269 -26.5955
rtoes 5.40272
lfemur 9.53729 -52.8134 -17.9204
ltibia -5.35781
lfoot -31.3148 58.8853
ltoes 19.2098
934
root -0.643328 17.4965 7.72062 8.98339 0.495409 -7.26749
lowerback 0.632466 0.280366 5.20363
upperback -11.674 0.917095 1.31273
thorax -12.9625 -0.018723 -1.57068
lowerneck -5.85355 -7.38238 -6.92771
upperneck 23.4899 -11.4877 8.57314
head 9.22019 -5.23826 2.91816
rclavicle -5.36719e-015 2.74323e-014
rhumerus -43.1044 -12.9623 -80.5198
rradius 21.9285
rwrist 39.5097
rhand 8.6429 -33.6857
rfingers 7.12502
rthumb 33.8381 299.495
lclavicle -5.36719e-015 2.74323e-014
lhumerus -46.5704 19.1333 72.2089
lradius 20.6588
lwrist -25.2993
lhand -16.6542 -7.20504
lfingers 7.12502
lthumb 9.56897 22.5577
rfemur -0.874158 26.7777 26.1149
rtibia -0.969776
rfoot -11.9683 -26.5624
rtoes 5.50631
lfemur 9.48009 -52.6701 -17.888
ltibia -5.37587
lfoot -30.7797 58.8365
ltoes 18.9076
935
root -0.64246 17.4966 7.71876 8.99138 0.485874 -7.253
lowerback 0.566935 0.307251 5.20945
upperback -11.661 0.947416 1.29778
thorax -12.9036 -0.00410679 -1.59343
lowerneck -6.02752 -7.35222 -6.78872
upperneck 23.6903 -11.4302 8.38977
head 9.29785 -5.20693 2.83307
rclavicle -6.65929e-015 1.19271e-015
rhumerus -43.0593 -12.8374 -80.7586
rradius 21.9464
rwrist 39.3976
rhand 8.68047 -33.7048
rfingers 7.12502
rthumb 33.8738 299.483
lclavicle -6.65929e-015 1.19271e-015
lhumerus -46.4334 19.2308 72.526
lradius 21.0624
lwrist -24.675
lhand -16.5029 -6.02756
lfingers 7.12502
lthumb 9.71494 23.7284
rfemur -0.883431 26.7923 26.089
rtibia -0.984359
rfoot -11.9883 -26.5745
rtoes 5.58485
lfemur 9.35426 -52.4605 -17.7705
ltibia -5.41739
lfoot -30.1012 58.7425
ltoes 18.5298
936
root -0.641242 17.4956 7.7171 8.99381 0.466254 -7.28606
lowerback 0.50935 0.340252 5.26318
upperback -11.6732 0.99172 1.28694
thorax -12.8793 0.0113318 -1.63963
lowerneck -6.11308 -7.32857 -6.60756
upperneck 23.8927 -11.3898 8.19276
head 9.35802 -5.18441 2.73777
rclavicle -9.93923e-017 1.03368e-014
rhumerus -43.0546 -12.572 -81.1053
rradius 22.0033
rwrist 39.0832
rhand 8.72337 -33.6867
rfingers 7.12502
rthumb 33.9145 299.511
lclavicle -9.93923e-017 1.03368e-014
lhumerus -46.3564 19.4599 72.6656
lradius 21.3641
lwrist -23.951
lhand -16.5655 -5.35662
lfingers 7.12502
lthumb 9.65454 24.4021
rfemur -0.892681 26.8081 26.1182
rtibia -0.98567
rfoot -11.9699 -26.5566
rtoes 5.5775
lfemur 9.24741 -52.2263 -17.6125
ltibia -5.47224
lfoot -29.487 58.6451
ltoes 18.1214
937
root -0.639028 17.4941 7.71471 8.95959 0.441343 -7.35958
lowerback 0.482326 0.385256 5.38071
upperback -11.6816 1.05964 1.28095
thorax -12.8683 0.0315051 -1.71882
lowerneck -6.04659 -7.29886 -6.53933
upperneck 23.9735 -11.358 8.15262
head 9.36437 -5.16788 2.71955
rclavicle -6.36111e-015 -5.96354e-015
rhumerus -43.0484 -12.3363 -81.4205
rradius 22.0388
rwrist 38.8994
rhand 8.71283 -33.6001
rfingers 7.12502
rthumb 33.9045 299.595
lclavicle -6.36111e-015 -5.96354e-015
lhumerus -46.2873 19.8731 72.6485
lradius 21.5165
lwrist -23.3777
lhand -16.7942 -5.23607
lfingers 7.12502
lthumb 9.43397 24.5328
rfemur -0.866994 26.8092 26.207
rtibia -0.979231
rfoot -11.9301 -26.5216
rtoes 5.42244
lfemur 9.2385 -52.02 -17.496
ltibia -5.52438
lfoot -29.051 58.5584
ltoes 17.8143
938
root -0.636744 17.4926 7.71158 8.90333 0.409957 -7.40593
lowerback 0.490536 0.438439 5.48811
upperback -11.6779 1.13889 1.26447
thorax -12.8634 0.0575259 -1.80551
lowerneck -5.97367 -7.2551 -6.57335
upperneck 24.0137 -11.309 8.20155
head 9.36553 -5.14443 2.75087
rclavicle 2.08724e-015 -1.98785e-015
rhumerus -43.0264 -12.1084 -81.7278
rradius 22.0608
rwrist 38.7937
rhand 8.6586 -33.4949
rfingers 7.12502
rthumb 33.853 299.689
lclavicle 2.08724e-015 -1.98785e-015
lhumerus -46.1656 20.2039 72.7055
lradius 21.6355
lwrist -22.842
lhand -17.0803 -5.05822
lfingers 7.12502
lthumb 9.15785 24.7229
rfemur -0.82126 26.7758 26.2697
rtibia -0.967166
rfoot -11.8873 -26.4473
rtoes 5.21662
lfemur 9.32959 -51.9376 -17.5001
ltibia -5.57898
lfoot -28.9473 58.5232
ltoes 17.8793
939
root -0.634199 17.4914 7.70847 8.86109 0.383252 -7.37584
lowerback 0.522896 0.488712 5.53084
upperback -11.6781 1.20796 1.21485
thorax -12.8777 0.0825961 -1.89167
lowerneck -6.02457 -7.19466 -6.62166
upperneck 24.1105 -11.2422 8.28425
head 9.41137 -5.10542 2.79365
rclavicle 3.08116e-015 -1.23246e-014
rhumerus -42.9959 -11.7029 -82.1846
rradius 22.1498
rwrist 38.4093
rhand 8.61672 -33.5179
rfingers 7.12502
rthumb 33.8132 299.657
lclavicle 3.08116e-015 -1.23246e-014
lhumerus -45.9564 20.1341 73.0543
lradius 21.7883
lwrist -22.1231
lhand -17.3981 -4.85951
lfingers 7.12502
lthumb 8.85119 24.9349
rfemur -0.79404 26.702 26.2287
rtibia -0.965043
rfoot -11.8992 -26.3297
rtoes 5.38628
lfemur 9.35774 -51.8405 -17.556
ltibia -5.58719
lfoot -28.8379 58.4143
ltoes 18.0105
940
root -0.631384 17.4911 7.70583 8.82989 0.377143 -7.27965
lowerback 0.537415 0.529497 5.5167
upperback -11.6701 1.25634 1.1473
thorax -12.8716 0.103115 -1.96339
lowerneck -6.12535 -7.1456 -6.59724
upperneck 24.2138 -11.1762 8.26989
head 9.45867 -5.06807 2.78915
rclavicle 9.64106e-015 -5.56597e-015
rhumerus -42.9396 -11.2528 -82.6686
rradius 22.2838
rwrist 38.0295
rhand 8.70848 -33.6034
rfingers 7.12502
rthumb 33.9004 299.591
lclavicle 9.64106e-015 -5.56597e-015
lhumerus -45.6889 19.8643 73.5819
lradius 21.9478
lwrist -21.629
lhand -17.4896 -4.72821
lfingers 7.12502
lthumb 8.7629 25.0699
rfemur -0.779747 26.5848 26.0992
rtibia -0.978721
rfoot -11.9553 -26.1964
rtoes 5.86894
lfemur 9.23885 -51.5128 -17.5582
ltibia -5.57865
lfoot -28.1672 58.1128
ltoes 17.6823
941
root -0.629378 17.4909 7.70397 8.8007 0.352733 -7.20192
lowerback 0.515803 0.550768 5.49092
upperback -11.6458 1.27753 1.11732
thorax -12.8264 0.115578 -1.98407
lowerneck -6.26754 -7.10576 -6.47326
upperneck 24.3682 -11.0898 8.05092
head 9.51179 -5.03038 2.69855
rclavicle -1.98785e-015 1.66979e-014
rhumerus -42.8548 -10.7396 -83.1591
rradius 22.4188
rwrist 37.808
rhand 8.85177 -33.5836
rfingers 7.12502
rthumb 34.0365 299.641
lclavicle -1.98785e-015 1.66979e-014
lhumerus -45.4306 19.4952 74.1908
lradius 22.1307
lwrist -21.4273
lhand -17.4434 -4.69919
lfingers 7.12502
lthumb 8.80751 25.097
rfemur -0.785509 26.4207 25.9843
rtibia -0.969219
rfoot -11.8968 -25.9933
rtoes 6.04138
lfemur 9.05895 -50.9916 -17.4485
ltibia -5.62961
lfoot -27.2943 57.6556
ltoes 17.4544
942
root -0.628626 17.4908 7.70228 8.76675 0.327299 -7.17432
lowerback 0.49424 0.547529 5.47669
upperback -11.6232 1.27059 1.12985
thorax -12.7866 0.115937 -1.96148
lowerneck -6.43101 -7.05468 -6.31383
upperneck 24.5711 -10.9815 7.77164
head 9.57897 -4.98406 2.58312
rclavicle 3.8763e-015 1.35174e-014
rhumerus -42.7638 -10.1171 -83.6915
rradius 22.5574
rwrist 37.4626
rhand 8.93862 -33.512
rfingers 7.12502
rthumb 34.119 299.731
lclavicle 3.8763e-015 1.35174e-014
lhumerus -45.1778 18.769 75.0369
lradius 22.3852
lwrist -20.9423
lhand -17.4356 -4.8877
lfingers 7.12502
lthumb 8.81501 24.9082
rfemur -0.833389 26.1712 25.9198
rtibia -0.900926
rfoot -11.6935 -25.6867
rtoes 5.64059
lfemur 8.84321 -50.3652 -17.2195
ltibia -5.71286
lfoot -26.5713 57.0915
ltoes 17.6088
943
root -0.628956 17.4912 7.70013 8.72182 0.324666 -7.14319
lowerback 0.497889 0.541552 5.45401
upperback -11.61 1.26135 1.13881
thorax -12.774 0.114994 -1.93816
lowerneck -6.51948 -7.00049 -6.19809
upperneck 24.7279 -10.8782 7.56151
head 9.62337 -4.94066 2.50083
rclavicle -1.07344e-014 2.78299e-014
rhumerus -42.6931 -9.46723 -84.2204
rradius 22.7133
rwrist 36.9994
rhand 8.97709 -33.484
rfingers 7.12502
rthumb 34.1555 299.767
lclavicle -1.07344e-014 2.78299e-014
lhumerus -44.9345 17.7256 76.0718
lradius 22.6931
lwrist -20.2128
lhand -17.368 -5.0621
lfingers 7.12502
lthumb 8.88021 24.731
rfemur -0.91493 25.8163 25.8363
rtibia -0.786951
rfoot -11.5375 -25.2775
rtoes 5.13635
lfemur 8.59841 -49.6639 -16.9592
ltibia -5.78712
lfoot -25.9074 56.422
ltoes 17.7101
944
root -0.628909 17.4913 7.69735 8.67789 0.30888 -7.09086
lowerback 0.528741 0.559188 5.43072
upperback -11.6117 1.28421 1.12106
thorax -12.7929 0.12676 -1.94761
lowerneck -6.57988 -6.94616 -6.22187
upperneck 24.874 -10.7892 7.49418
head 9.67702 -4.90335 2.49017
rclavicle -1.81888e-014 1.23246e-014
rhumerus -42.6807 -8.86157 -84.7256
rradius 22.9101
rwrist 36.6684
rhand 9.03392 -33.5713
rfingers 7.12502
rthumb 34.2095 299.692
lclavicle -1.81888e-014 1.23246e-014
lhumerus -44.7446 16.7709 76.929
lradius 22.8798
lwrist -19.8305
lhand -17.3026 -5.85914
lfingers 7.12502
lthumb 8.94333 23.9313
rfemur -0.999042 25.4319 25.7065
rtibia -0.680948
rfoot -11.5055 -24.7791
rtoes 5.06411
lfemur 8.37534 -48.9761 -16.7425
ltibia -5.86171
lfoot -25.0121 55.7692
ltoes 17.3331
945
root -0.626972 17.4914 7.69478 8.63123 0.314813 -7.03724
lowerback 0.557728 0.583104 5.44771
upperback -11.6111 1.31626 1.08185
thorax -12.8068 0.137429 -2.0039
lowerneck -6.64205 -6.89701 -6.33436
upperneck 25.002 -10.7236 7.55098
head 9.73928 -4.87281 2.53438
rclavicle 6.16232e-015 -1.23246e-014
rhumerus -42.6838 -8.34643 -85.1877
rradius 23.1222
rwrist 36.462
rhand 9.16124 -33.7044
rfingers 7.12502
rthumb 34.3304 299.586
lclavicle 6.16232e-015 -1.23246e-014
lhumerus -44.5664 15.9388 77.5934
lradius 22.9261
lwrist -19.7472
lhand -17.2815 -7.41553
lfingers 7.12502
lthumb 8.96372 22.374
rfemur -1.04351 25.0333 25.5763
rtibia -0.620027
rfoot -11.4592 -24.2712
rtoes 5.23297
lfemur 8.19112 -48.3685 -16.5692
ltibia -5.93512
lfoot -23.6936 55.2167
ltoes 16.3809
